<?xml version="1.0" encoding="UTF-8" standalone="no"?>
<!-- Created with Inkscape (http://www.inkscape.org/) -->

<svg
   xmlns:dc="http://purl.org/dc/elements/1.1/"
   xmlns:cc="http://creativecommons.org/ns#"
   xmlns:rdf="http://www.w3.org/1999/02/22-rdf-syntax-ns#"
   xmlns:svg="http://www.w3.org/2000/svg"
   xmlns="http://www.w3.org/2000/svg"
   xmlns:sodipodi="http://sodipodi.sourceforge.net/DTD/sodipodi-0.dtd"
   xmlns:inkscape="http://www.inkscape.org/namespaces/inkscape"
   width="10cm"
   height="3cm"
   viewBox="0 0 100 30"
   version="1.1"
   id="svg8"
   inkscape:version="0.92.1 r15371"
   sodipodi:docname="Yung.svg">
  <defs
     id="defs2" />
  <sodipodi:namedview
     id="base"
     pagecolor="#ffffff"
     bordercolor="#666666"
     borderopacity="1.0"
     inkscape:pageopacity="0.0"
     inkscape:pageshadow="2"
     inkscape:zoom="0.98994949"
     inkscape:cx="288.13066"
     inkscape:cy="294.73284"
     inkscape:document-units="mm"
     inkscape:current-layer="layer2"
     showgrid="false"
     inkscape:window-width="1680"
     inkscape:window-height="987"
     inkscape:window-x="-8"
     inkscape:window-y="-8"
     inkscape:window-maximized="1"
     units="cm" />
  <metadata
     id="metadata5">
    <rdf:RDF>
      <cc:Work
         rdf:about="">
        <dc:format>image/svg+xml</dc:format>
        <dc:type
           rdf:resource="http://purl.org/dc/dcmitype/StillImage" />
        <dc:title></dc:title>
      </cc:Work>
    </rdf:RDF>
  </metadata>
  <g
     inkscape:label="Layer 1"
     inkscape:groupmode="layer"
     id="layer1"
     transform="translate(0,-267)">
    <g
       aria-label="Yung innovation"
       transform="matrix(0.26458333,0,0,0.26458333,-40.828574,231.55913)"
       style="font-style:normal;font-weight:normal;font-size:40px;line-height:1.25;font-family:sans-serif;letter-spacing:0px;word-spacing:0px;fill:#000000;fill-opacity:1;stroke:none"
       id="flowRoot3680">
      <path
         d="m 202.39062,168.79612 0.11719,0.15625 -0.19531,0.21485 q -3.49609,3.63281 -5.76172,7.38281 -0.87891,1.42578 -1.25,2.03125 l -7.26562,11.62109 v 7.92969 l 2.83203,2.59766 h -9.51172 l 2.8125,-2.59766 v -7.92969 l -4.6875,-7.20703 -1.01563,-1.62109 q -1.38672,-2.16797 -2.28515,-3.16406 -0.87891,-0.9961 -2.61719,-2.36329 l -0.21484,-0.17578 h 9.86328 l -2.42188,2.51953 6.50391,9.80469 0.625,-0.99609 -5.80078,-8.8086 2.05078,-1.95312 0.41015,0.3125 -1.77734,1.64062 5.41016,8.33985 4.375,-6.89453 q 1.89453,-3.00782 1.89453,-4.49219 0,-1.25 -1.66016,-2.85156 5.6836,-1.36719 9.33594,-3.37891 z m 0.87891,1.17188 v 0.80078 l -0.19531,0.19531 q -1.64063,1.5625 -2.83203,3.125 -1.17188,1.5625 -3.4961,5.25391 l -7.07031,11.13281 v 7.65625 l 3.47656,4.19922 h -12.22656 l -0.23437,-0.52734 h 11.42578 l -2.96875,-3.67188 v -7.79297 l 7.20703,-11.36719 1.13281,-1.79687 q 3.02734,-4.82422 5.78125,-7.20703 z"
         style="font-style:normal;font-variant:normal;font-weight:normal;font-stretch:normal;font-family:Algerian;-inkscape-font-specification:Algerian;fill:#000000"
         id="path3696"
         inkscape:connector-curvature="0" />
      <path
         d="m 223.21094,175.67112 -3.4961,2.79297 v 12.61719 q 0,3.47656 -0.23437,5 -0.21485,1.52344 -0.87891,2.5 -1.67969,2.5 -6.52344,2.5 -5.11718,0 -7.14843,-2.5 -1.6211,-1.97266 -1.6211,-7.55859 v -12.96875 l -2.65625,-2.38282 h 9.21875 l -2.65625,2.59766 v 12.77344 l 0.0391,3.00781 q 0,2.91016 1.21093,4.14062 1.21094,1.21094 4.08203,1.21094 3.16407,0 4.35547,-1.85547 0.95703,-1.5039 0.95703,-6.44531 l 0.0781,-12.63672 -3.04688,-2.79297 z m 0.66406,1.32813 -2.65625,2.20703 v 12.12891 q 0,5.95703 -0.9375,7.77343 -1.91406,3.67188 -7.48047,3.67188 -4.80469,0 -7.22656,-2.40235 l 0.15625,0.0781 0.68359,0.39062 q 2.40235,1.40625 6.17188,1.40625 5.39062,0 7.14843,-3.39843 0.9375,-1.83594 0.9375,-7.38282 v -12.5 l 2.91016,-2.38281 z m -13.18359,-0.27344 -1.91407,1.93359 v 14.51172 l -0.0195,1.34766 0.60547,2.48047 q 0.44922,0.74219 1.69922,1.79687 l 0.0391,0.17578 q -1.64062,-0.66406 -2.26562,-1.93359 -0.625,-1.26953 -0.625,-3.92578 v -14.64844 l 2.20703,-2.14844 z"
         style="font-style:normal;font-variant:normal;font-weight:normal;font-stretch:normal;font-family:Algerian;-inkscape-font-specification:Algerian;fill:#000000"
         id="path3698"
         inkscape:connector-curvature="0" />
      <path
         d="m 247.37109,175.67112 q -2.22656,1.15235 -2.87109,2.10938 -0.97656,1.48437 -0.97656,4.47265 v 1.26954 17.20703 h -3.30078 l -9.21875,-17.89063 v 10.60547 l -0.0195,0.87891 0.23438,2.8125 q 0.39062,1.95312 1.77734,2.89062 l 0.15625,0.13672 q -2.69531,-0.89844 -2.69531,-5.76172 l 0.0195,-1.83594 v -10.68359 l -1.05469,-2.05078 v 11.25 q 0,5.35156 0.70313,7.01172 0.70312,1.66015 3.30078,2.42187 l 1.69922,1.81641 h -10.58594 l -0.3125,-0.52734 h 9.78516 l -1.01563,-1.07422 h -9.10156 q 2.38281,-0.85938 3.16406,-2.30469 0.78125,-1.44531 0.78125,-4.96094 v -15.625 l -2.59765,-2.16797 h 9.88281 l -2.77344,1.85547 9.45313,18.4375 v -2.34375 l -8.10547,-15.78125 2.73437,-1.85547 0.3711,0.3711 -2.42188,1.64062 7.42188,14.57031 v -9.12109 -1.03516 q 0,-3.39843 -0.56641,-4.53125 -0.54687,-1.15234 -2.73437,-2.20703 z m 0.6836,1.44532 -0.35157,0.58593 q -1.5039,0.35157 -2.05078,1.3086 -0.52734,0.9375 -0.52734,3.18359 v 20.13672 h -4.19922 l -0.25391,-0.52734 h 3.92579 v -19.41407 q 0,-2.7539 0.70312,-3.82812 0.72266,-1.09375 2.75391,-1.44531 z"
         style="font-style:normal;font-variant:normal;font-weight:normal;font-stretch:normal;font-family:Algerian;-inkscape-font-specification:Algerian;fill:#000000"
         id="path3700"
         inkscape:connector-curvature="0" />
      <path
         d="m 271.23828,176.35472 -3.65234,7.1875 q -0.35157,-3.06641 -1.9336,-4.6875 -1.5625,-1.6211 -4.14062,-1.6211 -3.67188,0 -5.72266,2.85157 -2.03125,2.85156 -2.03125,7.98828 0,11.30859 9.25781,11.30859 h 3.14454 v -10.13672 h -4.92188 q -1.60156,0 -2.30469,-0.17578 -0.68359,-0.17578 -1.32812,-0.76172 v -0.48828 q 0.70312,0.52734 1.40625,0.70313 0.70312,0.15625 2.28515,0.15625 h 4.86329 v -1.05469 h -5.42969 -0.87891 q -2.91015,0 -2.91015,-2.10938 0,-0.82031 0.48828,-1.40625 0.48828,-0.58593 1.17187,-0.58593 0.50781,0 0.87891,0.37109 0.39062,0.37109 0.39062,0.87891 0,0.85937 -0.625,0.99609 l -0.46875,0.0977 q -0.23437,0.0586 -0.23437,0.19531 0,0.2539 0.64453,0.2539 h 0.66406 12.89063 l -2.69532,2.63672 v 9.62891 l 2.5,2.14844 h -9.98046 -1.97266 q -2.48047,0 -4.10156,-0.60547 -1.6211,-0.60547 -3.28125,-2.14844 -3.92578,-3.59375 -3.92578,-9.62891 0,-6.23046 3.71093,-9.72656 3.24219,-3.0664 7.69532,-3.0664 1.99218,0 4.57031,0.70312 2.63672,0.72266 3.47656,0.72266 1.23047,0 2.5,-0.625 z m 1.17188,1.23047 -3.33985,6.5625 -0.46875,-0.21485 3.35938,-6.58203 z m -6.25,2.96875 -0.35157,-0.25391 q -2.22656,-1.58203 -4.0625,-1.58203 -2.22656,0 -3.84765,1.58203 -1.17188,1.17187 -1.69922,3.06641 -0.50781,1.89453 -0.50781,5 0,3.94531 0.78125,6.03515 0.78125,2.08985 2.87109,3.76953 v 0.21485 q -2.26563,-1.34766 -3.26172,-3.78907 -0.99609,-2.46093 -0.99609,-6.66015 0,-4.62891 1.73828,-7.1875 1.73828,-2.57813 4.88281,-2.57813 2.73438,0 4.45313,2.26563 z m 7.42187,6.875 -2.01172,2.01171 v 9.16016 l 3.24219,3.73047 -7.75391,-0.0586 -7.03125,0.0781 q -0.66406,0 -1.01562,-0.0391 -1.23047,-0.13672 -2.48047,-1.07422 h 0.41016 q 1.32812,0.58594 3.63281,0.58594 l 0.97656,-0.0195 h 12.16797 l -2.69531,-2.98829 v -9.57031 l 2.24609,-2.26562 z"
         style="font-style:normal;font-variant:normal;font-weight:normal;font-stretch:normal;font-family:Algerian;-inkscape-font-specification:Algerian;fill:#000000"
         id="path3702"
         inkscape:connector-curvature="0" />
      <path
         d="m 286.41406,175.67112 h 9.25781 l -2.61718,2.65625 v 20.33203 l 2.46093,2.07032 h -9.10156 l 2.71485,-2.2461 v -20.37109 z m 10.13672,1.11328 -1.99219,1.97266 v 19.90234 l 3.28125,3.67188 h -10.15625 l -0.48828,-0.52734 h 9.49219 l -2.67578,-2.94922 v -20.27344 l 2.20703,-2.1875 z"
         style="font-style:normal;font-variant:normal;font-weight:normal;font-stretch:normal;font-family:Algerian;-inkscape-font-specification:Algerian;fill:#000000"
         id="path3704"
         inkscape:connector-curvature="0" />
      <path
         d="m 320.96484,175.67112 q -2.22656,1.15235 -2.87109,2.10938 -0.97656,1.48437 -0.97656,4.47265 v 1.26954 17.20703 h -3.30078 l -9.21875,-17.89063 v 10.60547 l -0.0195,0.87891 0.23438,2.8125 q 0.39062,1.95312 1.77734,2.89062 l 0.15625,0.13672 q -2.69531,-0.89844 -2.69531,-5.76172 l 0.0195,-1.83594 v -10.68359 l -1.05469,-2.05078 v 11.25 q 0,5.35156 0.70313,7.01172 0.70312,1.66015 3.30078,2.42187 l 1.69922,1.81641 h -10.58594 l -0.3125,-0.52734 h 9.78516 l -1.01563,-1.07422 h -9.10156 q 2.38281,-0.85938 3.16406,-2.30469 0.78125,-1.44531 0.78125,-4.96094 v -15.625 l -2.59765,-2.16797 h 9.88281 l -2.77344,1.85547 9.45313,18.4375 v -2.34375 l -8.10547,-15.78125 2.73437,-1.85547 0.3711,0.3711 -2.42188,1.64062 7.42188,14.57031 v -9.12109 -1.03516 q 0,-3.39843 -0.56641,-4.53125 -0.54687,-1.15234 -2.73437,-2.20703 z m 0.6836,1.44532 -0.35157,0.58593 q -1.5039,0.35157 -2.05078,1.3086 -0.52734,0.9375 -0.52734,3.18359 v 20.13672 h -4.19922 l -0.25391,-0.52734 h 3.92579 v -19.41407 q 0,-2.7539 0.70312,-3.82812 0.72266,-1.09375 2.75391,-1.44531 z"
         style="font-style:normal;font-variant:normal;font-weight:normal;font-stretch:normal;font-family:Algerian;-inkscape-font-specification:Algerian;fill:#000000"
         id="path3706"
         inkscape:connector-curvature="0" />
      <path
         d="m 345.02734,175.67112 q -2.22656,1.15235 -2.87109,2.10938 -0.97656,1.48437 -0.97656,4.47265 v 1.26954 17.20703 h -3.30078 l -9.21875,-17.89063 v 10.60547 l -0.0195,0.87891 0.23438,2.8125 q 0.39062,1.95312 1.77734,2.89062 l 0.15625,0.13672 q -2.69531,-0.89844 -2.69531,-5.76172 l 0.0195,-1.83594 v -10.68359 l -1.05469,-2.05078 v 11.25 q 0,5.35156 0.70313,7.01172 0.70312,1.66015 3.30078,2.42187 l 1.69922,1.81641 h -10.58594 l -0.3125,-0.52734 h 9.78516 l -1.01563,-1.07422 h -9.10156 q 2.38281,-0.85938 3.16406,-2.30469 0.78125,-1.44531 0.78125,-4.96094 v -15.625 l -2.59765,-2.16797 h 9.88281 l -2.77344,1.85547 9.45313,18.4375 v -2.34375 l -8.10547,-15.78125 2.73437,-1.85547 0.3711,0.3711 -2.42188,1.64062 7.42188,14.57031 v -9.12109 -1.03516 q 0,-3.39843 -0.56641,-4.53125 -0.54687,-1.15234 -2.73437,-2.20703 z m 0.6836,1.44532 -0.35157,0.58593 q -1.5039,0.35157 -2.05078,1.3086 -0.52734,0.9375 -0.52734,3.18359 v 20.13672 h -4.19922 l -0.25391,-0.52734 h 3.92579 v -19.41407 q 0,-2.7539 0.70312,-3.82812 0.72266,-1.09375 2.75391,-1.44531 z"
         style="font-style:normal;font-variant:normal;font-weight:normal;font-stretch:normal;font-family:Algerian;-inkscape-font-specification:Algerian;fill:#000000"
         id="path3708"
         inkscape:connector-curvature="0" />
      <path
         d="m 361.94141,180.02659 -0.33204,-0.19531 q -1.875,-1.03516 -3.4375,-1.03516 -5.13671,0 -5.13671,10.09766 0,7.38281 3.18359,9.78516 l -0.17578,0.19531 q -1.95313,-1.38672 -2.79297,-3.63281 -0.82031,-2.26563 -0.82031,-6.11329 0,-10.83984 5.70312,-10.83984 2.59766,0 3.8086,1.73828 z m -4.17969,-4.60937 q 4.74609,0 7.57812,3.59375 2.85157,3.59375 2.85157,9.60937 0,5.6836 -2.8125,9.0625 -2.79297,3.37891 -7.51954,3.37891 -3.73046,0 -6.64062,-2.38281 -4.27734,-3.51563 -4.27734,-10.41016 0,-5.89844 2.92968,-9.375 2.92969,-3.47656 7.89063,-3.47656 z m 0,1.67968 q -6.60156,0 -6.60156,11.60157 0,10.72265 6.5039,10.72265 3.02735,0 4.60938,-2.83203 1.58203,-2.85156 1.58203,-8.32031 0,-6.19141 -1.52344,-8.63281 -1.60156,-2.53907 -4.57031,-2.53907 z m 6.23047,-0.68359 q 2.79297,1.34766 4.41406,4.60938 1.62109,3.26171 1.62109,7.53906 0,6.28906 -3.20312,10.15625 -3.1836,3.86719 -8.37891,3.86719 -3.32031,0 -6.21094,-2.2461 v -0.0976 q 2.42188,1.77734 6.07422,1.77734 4.90235,0 8.04688,-3.69141 3.14453,-3.6914 3.14453,-9.43359 0,-4.27734 -1.44531,-7.48047 -1.42578,-3.20312 -4.0625,-4.78516 z"
         style="font-style:normal;font-variant:normal;font-weight:normal;font-stretch:normal;font-family:Algerian;-inkscape-font-specification:Algerian;fill:#000000"
         id="path3710"
         inkscape:connector-curvature="0" />
      <path
         d="m 397.87891,169.49925 0.21484,0.21484 q -2.55859,2.46094 -4.17969,5.27344 -1.62109,2.8125 -3.88672,8.78906 l -5.70312,14.92188 2.32422,2.03125 h -9.00391 l 2.57813,-2.12891 -7.14844,-20.35156 -3.00781,-2.57813 h 9.6875 L 377,178.42503 l 6.44531,18.33984 0.76172,-1.8164 -5.76172,-16.25 1.99219,-1.97266 0.35156,0.37109 -1.73828,1.71875 5.41016,15.44922 4.14062,-11.05468 q 1.85547,-4.92188 1.85547,-6.89454 0,-1.99218 -1.46484,-3.41796 l 0.37109,-0.0781 q 5.68359,-1.09375 8.51563,-3.32031 z m 1.05468,1.1914 0.17578,0.44922 q -3.73046,2.91016 -7.69531,13.28125 l -5.50781,14.35547 3.04687,3.55469 H 378.875 l -0.42969,-0.52734 h 9.35547 l -2.46094,-2.89063 5.60547,-14.62891 L 392,181.51097 q 1.40625,-3.59375 3.32031,-6.5625 1.91406,-2.98828 3.61328,-4.25782 z"
         style="font-style:normal;font-variant:normal;font-weight:normal;font-stretch:normal;font-family:Algerian;-inkscape-font-specification:Algerian;fill:#000000"
         id="path3712"
         inkscape:connector-curvature="0" />
      <path
         d="m 414.65625,175.67112 -2.03125,2.30469 3.20312,8.51563 0.78125,-0.42969 -2.89062,-7.69531 2.07031,-2.38282 0.50781,0.21485 -1.97265,2.28515 2.73437,7.28516 q 0.23438,-0.17578 0.27344,-0.21484 l 0.64453,-0.54688 q 0.58594,-0.46875 0.74219,-0.66406 0.50781,2.22656 1.5625,3.98437 -0.56641,-0.0391 -0.82031,-0.0391 -1.85547,0 -2.71485,0.58594 l 3.53516,9.58984 2.92969,2.26563 h -9.86328 l 2.69531,-2.26563 -2.16797,-5.70312 q -2.14844,2.16797 -3.30078,4.12109 l -0.44922,-0.11719 q 1.15234,-1.91406 3.4375,-4.27734 l 0.15625,-0.19531 -0.37109,-0.85938 q -2.32422,1.9336 -3.84766,4.49219 l -0.35156,-0.56641 q -1.01563,-1.62109 -2.59766,-3.6914 l -0.19531,-0.23438 q -1.50391,3.33985 -1.50391,5.42969 0,1.23047 0.41016,2.08984 0.42969,0.83985 2.03125,2.83203 0.13672,0.17579 0.42969,0.54688 h -10.54688 l -0.39062,-0.52734 h 9.9414 l -0.33203,-0.41016 q -1.28906,-1.5625 -1.69922,-2.42188 -0.39062,-0.8789 -0.39062,-2.05078 0,-1.99218 1.62109,-5.9375 l -0.85937,-0.89843 q -0.25391,0.625 -0.64454,1.83593 l -0.64453,1.99219 q -0.52734,1.60156 -0.52734,2.65625 0,1.09375 0.37109,1.81641 0.3711,0.72265 1.5625,1.97265 0.11719,0.11719 0.35157,0.3711 h -9.76563 q 2.79297,-1.44532 4.41406,-3.88672 1.64063,-2.44141 3.24219,-7.53906 l 0.0781,-0.27344 q -1.03516,-0.87891 -2.98829,-1.07422 1.07422,-1.60156 1.66016,-3.33984 0.27344,0.2539 0.33203,0.3125 l 0.87891,0.82031 q 0.44922,0.42969 1.07422,0.8789 l 0.35156,-0.85937 -0.23438,-0.19531 q -0.97656,-0.85938 -1.64062,-1.38672 l -0.17578,-0.13672 0.3125,-0.42969 q 1.03515,0.6836 1.99219,1.58203 l 2.65625,-7.30468 -2.07032,-2.22657 z m -4.82422,6.26953 -2.14844,5.66407 q 0.17578,0.19531 0.19532,0.23437 l 0.80078,0.89844 q 0.64453,0.70312 1.64062,2.1875 l 0.19531,0.29297 q 0.83985,-1.05469 1.99219,-2.08985 z m -0.87891,-2.26562 -3.10546,8.20312 q 1.48437,1.52344 2.55859,3.00782 l 0.89844,1.25 q 0.0195,0.0195 0.19531,0.2539 0.17578,-0.17578 0.19531,-0.21484 l 0.27344,-0.33203 q 0.0586,-0.0781 0.21484,-0.25391 Q 408.81641,189.47972 407,187.7805 l 2.5,-6.60156 z m 11.48438,5.60547 q 0.42969,1.75781 2.14844,4.82422 -0.42969,-0.0586 -0.48828,-0.0586 l -1.58204,-0.13672 q -1.07421,-0.0977 -1.5625,-0.0977 -0.0781,0 -0.39062,0.0195 l 3.26172,8.65234 4.35547,3.84766 h -11.3086 L 414.5,201.80394 h 10.37109 l -3.51562,-3.10547 -3.47656,-9.19922 q 0.66406,-0.17578 1.52343,-0.17578 1.05469,0 2.34375,0.17578 l -0.23437,-0.42969 q -1.25,-2.30469 -1.67969,-4.16016 z"
         style="font-style:normal;font-variant:normal;font-weight:normal;font-stretch:normal;font-family:Algerian;-inkscape-font-specification:Algerian;fill:#000000"
         id="path3714"
         inkscape:connector-curvature="0" />
      <path
         d="m 448.66016,175.67112 q -0.17579,0.33203 -0.23438,0.44922 l -1.32812,2.34375 q -0.6836,1.25 -1.26954,3.125 l -0.0391,0.0977 -0.19531,-0.13672 -0.0586,-0.25391 q -0.56641,-2.22656 -1.6211,-3.08593 -1.03515,-0.85938 -3.18359,-0.85938 -0.87891,0 -1.75781,0.0781 h -0.23438 v 21.17187 l 2.30469,2.12891 h -8.92578 l 2.73437,-2.28516 v -19.43359 l -1.38672,-0.0195 q -2.01172,0 -2.87109,0.80078 -0.83984,0.78125 -0.99609,2.77343 h -0.50782 q 0.21485,-2.28515 1.17188,-3.18359 0.97656,-0.89844 3.20312,-0.89844 l 1.17188,0.0195 h 0.21484 v -0.95703 q -0.99609,-0.11718 -1.89453,-0.11718 -2.51953,0 -3.63281,1.03515 -1.11328,1.01563 -1.23047,3.45703 h -0.23438 q -0.83984,-2.71484 -2.59765,-6.05468 l -0.11719,-0.19532 z m 1.23046,1.23047 q -1.34765,1.71875 -2.83203,5.70313 l -0.0781,0.19531 -0.42969,-0.37109 0.0586,-0.17579 q 1.44532,-4.04296 2.79297,-5.625 l 0.0977,-0.11718 z m -5.21484,3.04688 q -1.50391,-0.97657 -3.51562,-0.97657 -0.44922,0 -0.9375,0.0586 l 0.0781,19.6289 3.10547,3.67188 h -9.98047 l -0.44922,-0.52734 h 9.35547 l -2.61719,-2.98829 v -20.35156 l 1.05469,-0.0195 q 1.89453,0 2.67578,0.3125 0.80078,0.29297 1.23047,1.19141 z"
         style="font-style:normal;font-variant:normal;font-weight:normal;font-stretch:normal;font-family:Algerian;-inkscape-font-specification:Algerian;fill:#000000"
         id="path3716"
         inkscape:connector-curvature="0" />
      <path
         d="m 450.00781,175.67112 h 9.25781 l -2.61718,2.65625 v 20.33203 l 2.46093,2.07032 h -9.10156 l 2.71485,-2.2461 v -20.37109 z m 10.13672,1.11328 -1.99219,1.97266 v 19.90234 l 3.28125,3.67188 h -10.15625 l -0.48828,-0.52734 h 9.49219 l -2.67578,-2.94922 v -20.27344 l 2.20703,-2.1875 z"
         style="font-style:normal;font-variant:normal;font-weight:normal;font-stretch:normal;font-family:Algerian;-inkscape-font-specification:Algerian;fill:#000000"
         id="path3718"
         inkscape:connector-curvature="0" />
      <path
         d="m 477.41016,180.02659 -0.33204,-0.19531 q -1.875,-1.03516 -3.4375,-1.03516 -5.13671,0 -5.13671,10.09766 0,7.38281 3.18359,9.78516 l -0.17578,0.19531 q -1.95313,-1.38672 -2.79297,-3.63281 -0.82031,-2.26563 -0.82031,-6.11329 0,-10.83984 5.70312,-10.83984 2.59766,0 3.8086,1.73828 z m -4.17969,-4.60937 q 4.74609,0 7.57812,3.59375 2.85157,3.59375 2.85157,9.60937 0,5.6836 -2.8125,9.0625 -2.79297,3.37891 -7.51954,3.37891 -3.73046,0 -6.64062,-2.38281 -4.27734,-3.51563 -4.27734,-10.41016 0,-5.89844 2.92968,-9.375 2.92969,-3.47656 7.89063,-3.47656 z m 0,1.67968 q -6.60156,0 -6.60156,11.60157 0,10.72265 6.5039,10.72265 3.02735,0 4.60938,-2.83203 1.58203,-2.85156 1.58203,-8.32031 0,-6.19141 -1.52344,-8.63281 -1.60156,-2.53907 -4.57031,-2.53907 z m 6.23047,-0.68359 q 2.79297,1.34766 4.41406,4.60938 1.62109,3.26171 1.62109,7.53906 0,6.28906 -3.20312,10.15625 -3.1836,3.86719 -8.37891,3.86719 -3.32031,0 -6.21094,-2.2461 v -0.0976 q 2.42188,1.77734 6.07422,1.77734 4.90235,0 8.04688,-3.69141 3.14453,-3.6914 3.14453,-9.43359 0,-4.27734 -1.44531,-7.48047 -1.42578,-3.20312 -4.0625,-4.78516 z"
         style="font-style:normal;font-variant:normal;font-weight:normal;font-stretch:normal;font-family:Algerian;-inkscape-font-specification:Algerian;fill:#000000"
         id="path3720"
         inkscape:connector-curvature="0" />
      <path
         d="m 509.55859,175.67112 q -2.22656,1.15235 -2.87109,2.10938 -0.97656,1.48437 -0.97656,4.47265 v 1.26954 17.20703 h -3.30078 l -9.21875,-17.89063 v 10.60547 l -0.0195,0.87891 0.23438,2.8125 q 0.39062,1.95312 1.77734,2.89062 l 0.15625,0.13672 q -2.69531,-0.89844 -2.69531,-5.76172 l 0.0195,-1.83594 v -10.68359 l -1.05469,-2.05078 v 11.25 q 0,5.35156 0.70313,7.01172 0.70312,1.66015 3.30078,2.42187 l 1.69922,1.81641 h -10.58594 l -0.3125,-0.52734 h 9.78516 l -1.01563,-1.07422 h -9.10156 q 2.38281,-0.85938 3.16406,-2.30469 0.78125,-1.44531 0.78125,-4.96094 v -15.625 l -2.59765,-2.16797 h 9.88281 l -2.77344,1.85547 9.45313,18.4375 v -2.34375 l -8.10547,-15.78125 2.73437,-1.85547 0.3711,0.3711 -2.42188,1.64062 7.42188,14.57031 v -9.12109 -1.03516 q 0,-3.39843 -0.56641,-4.53125 -0.54687,-1.15234 -2.73437,-2.20703 z m 0.6836,1.44532 -0.35157,0.58593 q -1.5039,0.35157 -2.05078,1.3086 -0.52734,0.9375 -0.52734,3.18359 v 20.13672 h -4.19922 l -0.25391,-0.52734 h 3.92579 v -19.41407 q 0,-2.7539 0.70312,-3.82812 0.72266,-1.09375 2.75391,-1.44531 z"
         style="font-style:normal;font-variant:normal;font-weight:normal;font-stretch:normal;font-family:Algerian;-inkscape-font-specification:Algerian;fill:#000000"
         id="path3722"
         inkscape:connector-curvature="0" />
    </g>
    <flowRoot
       xml:space="preserve"
       id="flowRoot3688"
       style="font-style:normal;font-weight:normal;font-size:40px;line-height:1.25;font-family:sans-serif;letter-spacing:0px;word-spacing:0px;fill:#000000;fill-opacity:1;stroke:none"
       transform="scale(0.26458333)"><flowRegion
         id="flowRegion3690"><rect
           id="rect3692"
           width="34.285713"
           height="80"
           x="611.42859"
           y="519.66254" /></flowRegion><flowPara
         id="flowPara3694"></flowPara></flowRoot>  </g>
  <g
     inkscape:groupmode="layer"
     id="layer2"
     inkscape:label="Layer 2"
     style="display:inline"
     transform="translate(0,-267)">
    <g
       aria-label="Yung innovation"
       transform="matrix(0.26458333,0,0,0.26458333,-41.262655,231.48678)"
       style="font-style:normal;font-weight:normal;font-size:40px;line-height:1.25;font-family:sans-serif;letter-spacing:0px;word-spacing:0px;fill:#ffd5d5;fill-opacity:1;stroke:none"
       id="flowRoot3680-2">
      <path
         inkscape:connector-curvature="0"
         d="m 202.39062,168.79612 0.11719,0.15625 -0.19531,0.21485 q -3.49609,3.63281 -5.76172,7.38281 -0.87891,1.42578 -1.25,2.03125 l -7.26562,11.62109 v 7.92969 l 2.83203,2.59766 h -9.51172 l 2.8125,-2.59766 v -7.92969 l -4.6875,-7.20703 -1.01563,-1.62109 q -1.38672,-2.16797 -2.28515,-3.16406 -0.87891,-0.9961 -2.61719,-2.36329 l -0.21484,-0.17578 h 9.86328 l -2.42188,2.51953 6.50391,9.80469 0.625,-0.99609 -5.80078,-8.8086 2.05078,-1.95312 0.41015,0.3125 -1.77734,1.64062 5.41016,8.33985 4.375,-6.89453 q 1.89453,-3.00782 1.89453,-4.49219 0,-1.25 -1.66016,-2.85156 5.6836,-1.36719 9.33594,-3.37891 z m 0.87891,1.17188 v 0.80078 l -0.19531,0.19531 q -1.64063,1.5625 -2.83203,3.125 -1.17188,1.5625 -3.4961,5.25391 l -7.07031,11.13281 v 7.65625 l 3.47656,4.19922 h -12.22656 l -0.23437,-0.52734 h 11.42578 l -2.96875,-3.67188 v -7.79297 l 7.20703,-11.36719 1.13281,-1.79687 q 3.02734,-4.82422 5.78125,-7.20703 z"
         style="font-style:normal;font-variant:normal;font-weight:normal;font-stretch:normal;font-family:Algerian;-inkscape-font-specification:Algerian;fill:#ffd5d5"
         id="path3696-8" />
      <path
         inkscape:connector-curvature="0"
         d="m 223.21094,175.67112 -3.4961,2.79297 v 12.61719 q 0,3.47656 -0.23437,5 -0.21485,1.52344 -0.87891,2.5 -1.67969,2.5 -6.52344,2.5 -5.11718,0 -7.14843,-2.5 -1.6211,-1.97266 -1.6211,-7.55859 v -12.96875 l -2.65625,-2.38282 h 9.21875 l -2.65625,2.59766 v 12.77344 l 0.0391,3.00781 q 0,2.91016 1.21093,4.14062 1.21094,1.21094 4.08203,1.21094 3.16407,0 4.35547,-1.85547 0.95703,-1.5039 0.95703,-6.44531 l 0.0781,-12.63672 -3.04688,-2.79297 z m 0.66406,1.32813 -2.65625,2.20703 v 12.12891 q 0,5.95703 -0.9375,7.77343 -1.91406,3.67188 -7.48047,3.67188 -4.80469,0 -7.22656,-2.40235 l 0.15625,0.0781 0.68359,0.39062 q 2.40235,1.40625 6.17188,1.40625 5.39062,0 7.14843,-3.39843 0.9375,-1.83594 0.9375,-7.38282 v -12.5 l 2.91016,-2.38281 z m -13.18359,-0.27344 -1.91407,1.93359 v 14.51172 l -0.0195,1.34766 0.60547,2.48047 q 0.44922,0.74219 1.69922,1.79687 l 0.0391,0.17578 q -1.64062,-0.66406 -2.26562,-1.93359 -0.625,-1.26953 -0.625,-3.92578 v -14.64844 l 2.20703,-2.14844 z"
         style="font-style:normal;font-variant:normal;font-weight:normal;font-stretch:normal;font-family:Algerian;-inkscape-font-specification:Algerian;fill:#ffd5d5"
         id="path3698-5" />
      <path
         inkscape:connector-curvature="0"
         d="m 247.37109,175.67112 q -2.22656,1.15235 -2.87109,2.10938 -0.97656,1.48437 -0.97656,4.47265 v 1.26954 17.20703 h -3.30078 l -9.21875,-17.89063 v 10.60547 l -0.0195,0.87891 0.23438,2.8125 q 0.39062,1.95312 1.77734,2.89062 l 0.15625,0.13672 q -2.69531,-0.89844 -2.69531,-5.76172 l 0.0195,-1.83594 v -10.68359 l -1.05469,-2.05078 v 11.25 q 0,5.35156 0.70313,7.01172 0.70312,1.66015 3.30078,2.42187 l 1.69922,1.81641 h -10.58594 l -0.3125,-0.52734 h 9.78516 l -1.01563,-1.07422 h -9.10156 q 2.38281,-0.85938 3.16406,-2.30469 0.78125,-1.44531 0.78125,-4.96094 v -15.625 l -2.59765,-2.16797 h 9.88281 l -2.77344,1.85547 9.45313,18.4375 v -2.34375 l -8.10547,-15.78125 2.73437,-1.85547 0.3711,0.3711 -2.42188,1.64062 7.42188,14.57031 v -9.12109 -1.03516 q 0,-3.39843 -0.56641,-4.53125 -0.54687,-1.15234 -2.73437,-2.20703 z m 0.6836,1.44532 -0.35157,0.58593 q -1.5039,0.35157 -2.05078,1.3086 -0.52734,0.9375 -0.52734,3.18359 v 20.13672 h -4.19922 l -0.25391,-0.52734 h 3.92579 v -19.41407 q 0,-2.7539 0.70312,-3.82812 0.72266,-1.09375 2.75391,-1.44531 z"
         style="font-style:normal;font-variant:normal;font-weight:normal;font-stretch:normal;font-family:Algerian;-inkscape-font-specification:Algerian;fill:#ffd5d5"
         id="path3700-3" />
      <path
         inkscape:connector-curvature="0"
         d="m 271.23828,176.35472 -3.65234,7.1875 q -0.35157,-3.06641 -1.9336,-4.6875 -1.5625,-1.6211 -4.14062,-1.6211 -3.67188,0 -5.72266,2.85157 -2.03125,2.85156 -2.03125,7.98828 0,11.30859 9.25781,11.30859 h 3.14454 v -10.13672 h -4.92188 q -1.60156,0 -2.30469,-0.17578 -0.68359,-0.17578 -1.32812,-0.76172 v -0.48828 q 0.70312,0.52734 1.40625,0.70313 0.70312,0.15625 2.28515,0.15625 h 4.86329 v -1.05469 h -5.42969 -0.87891 q -2.91015,0 -2.91015,-2.10938 0,-0.82031 0.48828,-1.40625 0.48828,-0.58593 1.17187,-0.58593 0.50781,0 0.87891,0.37109 0.39062,0.37109 0.39062,0.87891 0,0.85937 -0.625,0.99609 l -0.46875,0.0977 q -0.23437,0.0586 -0.23437,0.19531 0,0.2539 0.64453,0.2539 h 0.66406 12.89063 l -2.69532,2.63672 v 9.62891 l 2.5,2.14844 h -9.98046 -1.97266 q -2.48047,0 -4.10156,-0.60547 -1.6211,-0.60547 -3.28125,-2.14844 -3.92578,-3.59375 -3.92578,-9.62891 0,-6.23046 3.71093,-9.72656 3.24219,-3.0664 7.69532,-3.0664 1.99218,0 4.57031,0.70312 2.63672,0.72266 3.47656,0.72266 1.23047,0 2.5,-0.625 z m 1.17188,1.23047 -3.33985,6.5625 -0.46875,-0.21485 3.35938,-6.58203 z m -6.25,2.96875 -0.35157,-0.25391 q -2.22656,-1.58203 -4.0625,-1.58203 -2.22656,0 -3.84765,1.58203 -1.17188,1.17187 -1.69922,3.06641 -0.50781,1.89453 -0.50781,5 0,3.94531 0.78125,6.03515 0.78125,2.08985 2.87109,3.76953 v 0.21485 q -2.26563,-1.34766 -3.26172,-3.78907 -0.99609,-2.46093 -0.99609,-6.66015 0,-4.62891 1.73828,-7.1875 1.73828,-2.57813 4.88281,-2.57813 2.73438,0 4.45313,2.26563 z m 7.42187,6.875 -2.01172,2.01171 v 9.16016 l 3.24219,3.73047 -7.75391,-0.0586 -7.03125,0.0781 q -0.66406,0 -1.01562,-0.0391 -1.23047,-0.13672 -2.48047,-1.07422 h 0.41016 q 1.32812,0.58594 3.63281,0.58594 l 0.97656,-0.0195 h 12.16797 l -2.69531,-2.98829 v -9.57031 l 2.24609,-2.26562 z"
         style="font-style:normal;font-variant:normal;font-weight:normal;font-stretch:normal;font-family:Algerian;-inkscape-font-specification:Algerian;fill:#ffd5d5"
         id="path3702-2" />
      <path
         inkscape:connector-curvature="0"
         d="m 286.41406,175.67112 h 9.25781 l -2.61718,2.65625 v 20.33203 l 2.46093,2.07032 h -9.10156 l 2.71485,-2.2461 v -20.37109 z m 10.13672,1.11328 -1.99219,1.97266 v 19.90234 l 3.28125,3.67188 h -10.15625 l -0.48828,-0.52734 h 9.49219 l -2.67578,-2.94922 v -20.27344 l 2.20703,-2.1875 z"
         style="font-style:normal;font-variant:normal;font-weight:normal;font-stretch:normal;font-family:Algerian;-inkscape-font-specification:Algerian;fill:#ffd5d5"
         id="path3704-1" />
      <path
         inkscape:connector-curvature="0"
         d="m 320.96484,175.67112 q -2.22656,1.15235 -2.87109,2.10938 -0.97656,1.48437 -0.97656,4.47265 v 1.26954 17.20703 h -3.30078 l -9.21875,-17.89063 v 10.60547 l -0.0195,0.87891 0.23438,2.8125 q 0.39062,1.95312 1.77734,2.89062 l 0.15625,0.13672 q -2.69531,-0.89844 -2.69531,-5.76172 l 0.0195,-1.83594 v -10.68359 l -1.05469,-2.05078 v 11.25 q 0,5.35156 0.70313,7.01172 0.70312,1.66015 3.30078,2.42187 l 1.69922,1.81641 h -10.58594 l -0.3125,-0.52734 h 9.78516 l -1.01563,-1.07422 h -9.10156 q 2.38281,-0.85938 3.16406,-2.30469 0.78125,-1.44531 0.78125,-4.96094 v -15.625 l -2.59765,-2.16797 h 9.88281 l -2.77344,1.85547 9.45313,18.4375 v -2.34375 l -8.10547,-15.78125 2.73437,-1.85547 0.3711,0.3711 -2.42188,1.64062 7.42188,14.57031 v -9.12109 -1.03516 q 0,-3.39843 -0.56641,-4.53125 -0.54687,-1.15234 -2.73437,-2.20703 z m 0.6836,1.44532 -0.35157,0.58593 q -1.5039,0.35157 -2.05078,1.3086 -0.52734,0.9375 -0.52734,3.18359 v 20.13672 h -4.19922 l -0.25391,-0.52734 h 3.92579 v -19.41407 q 0,-2.7539 0.70312,-3.82812 0.72266,-1.09375 2.75391,-1.44531 z"
         style="font-style:normal;font-variant:normal;font-weight:normal;font-stretch:normal;font-family:Algerian;-inkscape-font-specification:Algerian;fill:#ffd5d5"
         id="path3706-8" />
      <path
         inkscape:connector-curvature="0"
         d="m 345.02734,175.67112 q -2.22656,1.15235 -2.87109,2.10938 -0.97656,1.48437 -0.97656,4.47265 v 1.26954 17.20703 h -3.30078 l -9.21875,-17.89063 v 10.60547 l -0.0195,0.87891 0.23438,2.8125 q 0.39062,1.95312 1.77734,2.89062 l 0.15625,0.13672 q -2.69531,-0.89844 -2.69531,-5.76172 l 0.0195,-1.83594 v -10.68359 l -1.05469,-2.05078 v 11.25 q 0,5.35156 0.70313,7.01172 0.70312,1.66015 3.30078,2.42187 l 1.69922,1.81641 h -10.58594 l -0.3125,-0.52734 h 9.78516 l -1.01563,-1.07422 h -9.10156 q 2.38281,-0.85938 3.16406,-2.30469 0.78125,-1.44531 0.78125,-4.96094 v -15.625 l -2.59765,-2.16797 h 9.88281 l -2.77344,1.85547 9.45313,18.4375 v -2.34375 l -8.10547,-15.78125 2.73437,-1.85547 0.3711,0.3711 -2.42188,1.64062 7.42188,14.57031 v -9.12109 -1.03516 q 0,-3.39843 -0.56641,-4.53125 -0.54687,-1.15234 -2.73437,-2.20703 z m 0.6836,1.44532 -0.35157,0.58593 q -1.5039,0.35157 -2.05078,1.3086 -0.52734,0.9375 -0.52734,3.18359 v 20.13672 h -4.19922 l -0.25391,-0.52734 h 3.92579 v -19.41407 q 0,-2.7539 0.70312,-3.82812 0.72266,-1.09375 2.75391,-1.44531 z"
         style="font-style:normal;font-variant:normal;font-weight:normal;font-stretch:normal;font-family:Algerian;-inkscape-font-specification:Algerian;fill:#ffd5d5"
         id="path3708-8" />
      <path
         inkscape:connector-curvature="0"
         d="m 361.94141,180.02659 -0.33204,-0.19531 q -1.875,-1.03516 -3.4375,-1.03516 -5.13671,0 -5.13671,10.09766 0,7.38281 3.18359,9.78516 l -0.17578,0.19531 q -1.95313,-1.38672 -2.79297,-3.63281 -0.82031,-2.26563 -0.82031,-6.11329 0,-10.83984 5.70312,-10.83984 2.59766,0 3.8086,1.73828 z m -4.17969,-4.60937 q 4.74609,0 7.57812,3.59375 2.85157,3.59375 2.85157,9.60937 0,5.6836 -2.8125,9.0625 -2.79297,3.37891 -7.51954,3.37891 -3.73046,0 -6.64062,-2.38281 -4.27734,-3.51563 -4.27734,-10.41016 0,-5.89844 2.92968,-9.375 2.92969,-3.47656 7.89063,-3.47656 z m 0,1.67968 q -6.60156,0 -6.60156,11.60157 0,10.72265 6.5039,10.72265 3.02735,0 4.60938,-2.83203 1.58203,-2.85156 1.58203,-8.32031 0,-6.19141 -1.52344,-8.63281 -1.60156,-2.53907 -4.57031,-2.53907 z m 6.23047,-0.68359 q 2.79297,1.34766 4.41406,4.60938 1.62109,3.26171 1.62109,7.53906 0,6.28906 -3.20312,10.15625 -3.1836,3.86719 -8.37891,3.86719 -3.32031,0 -6.21094,-2.2461 v -0.0976 q 2.42188,1.77734 6.07422,1.77734 4.90235,0 8.04688,-3.69141 3.14453,-3.6914 3.14453,-9.43359 0,-4.27734 -1.44531,-7.48047 -1.42578,-3.20312 -4.0625,-4.78516 z"
         style="font-style:normal;font-variant:normal;font-weight:normal;font-stretch:normal;font-family:Algerian;-inkscape-font-specification:Algerian;fill:#ffd5d5"
         id="path3710-6" />
      <path
         inkscape:connector-curvature="0"
         d="m 397.87891,169.49925 0.21484,0.21484 q -2.55859,2.46094 -4.17969,5.27344 -1.62109,2.8125 -3.88672,8.78906 l -5.70312,14.92188 2.32422,2.03125 h -9.00391 l 2.57813,-2.12891 -7.14844,-20.35156 -3.00781,-2.57813 h 9.6875 L 377,178.42503 l 6.44531,18.33984 0.76172,-1.8164 -5.76172,-16.25 1.99219,-1.97266 0.35156,0.37109 -1.73828,1.71875 5.41016,15.44922 4.14062,-11.05468 q 1.85547,-4.92188 1.85547,-6.89454 0,-1.99218 -1.46484,-3.41796 l 0.37109,-0.0781 q 5.68359,-1.09375 8.51563,-3.32031 z m 1.05468,1.1914 0.17578,0.44922 q -3.73046,2.91016 -7.69531,13.28125 l -5.50781,14.35547 3.04687,3.55469 H 378.875 l -0.42969,-0.52734 h 9.35547 l -2.46094,-2.89063 5.60547,-14.62891 L 392,181.51097 q 1.40625,-3.59375 3.32031,-6.5625 1.91406,-2.98828 3.61328,-4.25782 z"
         style="font-style:normal;font-variant:normal;font-weight:normal;font-stretch:normal;font-family:Algerian;-inkscape-font-specification:Algerian;fill:#ffd5d5"
         id="path3712-7" />
      <path
         inkscape:connector-curvature="0"
         d="m 414.65625,175.67112 -2.03125,2.30469 3.20312,8.51563 0.78125,-0.42969 -2.89062,-7.69531 2.07031,-2.38282 0.50781,0.21485 -1.97265,2.28515 2.73437,7.28516 q 0.23438,-0.17578 0.27344,-0.21484 l 0.64453,-0.54688 q 0.58594,-0.46875 0.74219,-0.66406 0.50781,2.22656 1.5625,3.98437 -0.56641,-0.0391 -0.82031,-0.0391 -1.85547,0 -2.71485,0.58594 l 3.53516,9.58984 2.92969,2.26563 h -9.86328 l 2.69531,-2.26563 -2.16797,-5.70312 q -2.14844,2.16797 -3.30078,4.12109 l -0.44922,-0.11719 q 1.15234,-1.91406 3.4375,-4.27734 l 0.15625,-0.19531 -0.37109,-0.85938 q -2.32422,1.9336 -3.84766,4.49219 l -0.35156,-0.56641 q -1.01563,-1.62109 -2.59766,-3.6914 l -0.19531,-0.23438 q -1.50391,3.33985 -1.50391,5.42969 0,1.23047 0.41016,2.08984 0.42969,0.83985 2.03125,2.83203 0.13672,0.17579 0.42969,0.54688 h -10.54688 l -0.39062,-0.52734 h 9.9414 l -0.33203,-0.41016 q -1.28906,-1.5625 -1.69922,-2.42188 -0.39062,-0.8789 -0.39062,-2.05078 0,-1.99218 1.62109,-5.9375 l -0.85937,-0.89843 q -0.25391,0.625 -0.64454,1.83593 l -0.64453,1.99219 q -0.52734,1.60156 -0.52734,2.65625 0,1.09375 0.37109,1.81641 0.3711,0.72265 1.5625,1.97265 0.11719,0.11719 0.35157,0.3711 h -9.76563 q 2.79297,-1.44532 4.41406,-3.88672 1.64063,-2.44141 3.24219,-7.53906 l 0.0781,-0.27344 q -1.03516,-0.87891 -2.98829,-1.07422 1.07422,-1.60156 1.66016,-3.33984 0.27344,0.2539 0.33203,0.3125 l 0.87891,0.82031 q 0.44922,0.42969 1.07422,0.8789 l 0.35156,-0.85937 -0.23438,-0.19531 q -0.97656,-0.85938 -1.64062,-1.38672 l -0.17578,-0.13672 0.3125,-0.42969 q 1.03515,0.6836 1.99219,1.58203 l 2.65625,-7.30468 -2.07032,-2.22657 z m -4.82422,6.26953 -2.14844,5.66407 q 0.17578,0.19531 0.19532,0.23437 l 0.80078,0.89844 q 0.64453,0.70312 1.64062,2.1875 l 0.19531,0.29297 q 0.83985,-1.05469 1.99219,-2.08985 z m -0.87891,-2.26562 -3.10546,8.20312 q 1.48437,1.52344 2.55859,3.00782 l 0.89844,1.25 q 0.0195,0.0195 0.19531,0.2539 0.17578,-0.17578 0.19531,-0.21484 l 0.27344,-0.33203 q 0.0586,-0.0781 0.21484,-0.25391 Q 408.81641,189.47972 407,187.7805 l 2.5,-6.60156 z m 11.48438,5.60547 q 0.42969,1.75781 2.14844,4.82422 -0.42969,-0.0586 -0.48828,-0.0586 l -1.58204,-0.13672 q -1.07421,-0.0977 -1.5625,-0.0977 -0.0781,0 -0.39062,0.0195 l 3.26172,8.65234 4.35547,3.84766 h -11.3086 L 414.5,201.80394 h 10.37109 l -3.51562,-3.10547 -3.47656,-9.19922 q 0.66406,-0.17578 1.52343,-0.17578 1.05469,0 2.34375,0.17578 l -0.23437,-0.42969 q -1.25,-2.30469 -1.67969,-4.16016 z"
         style="font-style:normal;font-variant:normal;font-weight:normal;font-stretch:normal;font-family:Algerian;-inkscape-font-specification:Algerian;fill:#ffd5d5"
         id="path3714-9" />
      <path
         inkscape:connector-curvature="0"
         d="m 448.66016,175.67112 q -0.17579,0.33203 -0.23438,0.44922 l -1.32812,2.34375 q -0.6836,1.25 -1.26954,3.125 l -0.0391,0.0977 -0.19531,-0.13672 -0.0586,-0.25391 q -0.56641,-2.22656 -1.6211,-3.08593 -1.03515,-0.85938 -3.18359,-0.85938 -0.87891,0 -1.75781,0.0781 h -0.23438 v 21.17187 l 2.30469,2.12891 h -8.92578 l 2.73437,-2.28516 v -19.43359 l -1.38672,-0.0195 q -2.01172,0 -2.87109,0.80078 -0.83984,0.78125 -0.99609,2.77343 h -0.50782 q 0.21485,-2.28515 1.17188,-3.18359 0.97656,-0.89844 3.20312,-0.89844 l 1.17188,0.0195 h 0.21484 v -0.95703 q -0.99609,-0.11718 -1.89453,-0.11718 -2.51953,0 -3.63281,1.03515 -1.11328,1.01563 -1.23047,3.45703 h -0.23438 q -0.83984,-2.71484 -2.59765,-6.05468 l -0.11719,-0.19532 z m 1.23046,1.23047 q -1.34765,1.71875 -2.83203,5.70313 l -0.0781,0.19531 -0.42969,-0.37109 0.0586,-0.17579 q 1.44532,-4.04296 2.79297,-5.625 l 0.0977,-0.11718 z m -5.21484,3.04688 q -1.50391,-0.97657 -3.51562,-0.97657 -0.44922,0 -0.9375,0.0586 l 0.0781,19.6289 3.10547,3.67188 h -9.98047 l -0.44922,-0.52734 h 9.35547 l -2.61719,-2.98829 v -20.35156 l 1.05469,-0.0195 q 1.89453,0 2.67578,0.3125 0.80078,0.29297 1.23047,1.19141 z"
         style="font-style:normal;font-variant:normal;font-weight:normal;font-stretch:normal;font-family:Algerian;-inkscape-font-specification:Algerian;fill:#ffd5d5"
         id="path3716-1" />
      <path
         inkscape:connector-curvature="0"
         d="m 450.00781,175.67112 h 9.25781 l -2.61718,2.65625 v 20.33203 l 2.46093,2.07032 h -9.10156 l 2.71485,-2.2461 v -20.37109 z m 10.13672,1.11328 -1.99219,1.97266 v 19.90234 l 3.28125,3.67188 h -10.15625 l -0.48828,-0.52734 h 9.49219 l -2.67578,-2.94922 v -20.27344 l 2.20703,-2.1875 z"
         style="font-style:normal;font-variant:normal;font-weight:normal;font-stretch:normal;font-family:Algerian;-inkscape-font-specification:Algerian;fill:#ffd5d5"
         id="path3718-3" />
      <path
         inkscape:connector-curvature="0"
         d="m 477.41016,180.02659 -0.33204,-0.19531 q -1.875,-1.03516 -3.4375,-1.03516 -5.13671,0 -5.13671,10.09766 0,7.38281 3.18359,9.78516 l -0.17578,0.19531 q -1.95313,-1.38672 -2.79297,-3.63281 -0.82031,-2.26563 -0.82031,-6.11329 0,-10.83984 5.70312,-10.83984 2.59766,0 3.8086,1.73828 z m -4.17969,-4.60937 q 4.74609,0 7.57812,3.59375 2.85157,3.59375 2.85157,9.60937 0,5.6836 -2.8125,9.0625 -2.79297,3.37891 -7.51954,3.37891 -3.73046,0 -6.64062,-2.38281 -4.27734,-3.51563 -4.27734,-10.41016 0,-5.89844 2.92968,-9.375 2.92969,-3.47656 7.89063,-3.47656 z m 0,1.67968 q -6.60156,0 -6.60156,11.60157 0,10.72265 6.5039,10.72265 3.02735,0 4.60938,-2.83203 1.58203,-2.85156 1.58203,-8.32031 0,-6.19141 -1.52344,-8.63281 -1.60156,-2.53907 -4.57031,-2.53907 z m 6.23047,-0.68359 q 2.79297,1.34766 4.41406,4.60938 1.62109,3.26171 1.62109,7.53906 0,6.28906 -3.20312,10.15625 -3.1836,3.86719 -8.37891,3.86719 -3.32031,0 -6.21094,-2.2461 v -0.0976 q 2.42188,1.77734 6.07422,1.77734 4.90235,0 8.04688,-3.69141 3.14453,-3.6914 3.14453,-9.43359 0,-4.27734 -1.44531,-7.48047 -1.42578,-3.20312 -4.0625,-4.78516 z"
         style="font-style:normal;font-variant:normal;font-weight:normal;font-stretch:normal;font-family:Algerian;-inkscape-font-specification:Algerian;fill:#ffd5d5"
         id="path3720-8" />
      <path
         inkscape:connector-curvature="0"
         d="m 509.55859,175.67112 q -2.22656,1.15235 -2.87109,2.10938 -0.97656,1.48437 -0.97656,4.47265 v 1.26954 17.20703 h -3.30078 l -9.21875,-17.89063 v 10.60547 l -0.0195,0.87891 0.23438,2.8125 q 0.39062,1.95312 1.77734,2.89062 l 0.15625,0.13672 q -2.69531,-0.89844 -2.69531,-5.76172 l 0.0195,-1.83594 v -10.68359 l -1.05469,-2.05078 v 11.25 q 0,5.35156 0.70313,7.01172 0.70312,1.66015 3.30078,2.42187 l 1.69922,1.81641 h -10.58594 l -0.3125,-0.52734 h 9.78516 l -1.01563,-1.07422 h -9.10156 q 2.38281,-0.85938 3.16406,-2.30469 0.78125,-1.44531 0.78125,-4.96094 v -15.625 l -2.59765,-2.16797 h 9.88281 l -2.77344,1.85547 9.45313,18.4375 v -2.34375 l -8.10547,-15.78125 2.73437,-1.85547 0.3711,0.3711 -2.42188,1.64062 7.42188,14.57031 v -9.12109 -1.03516 q 0,-3.39843 -0.56641,-4.53125 -0.54687,-1.15234 -2.73437,-2.20703 z m 0.6836,1.44532 -0.35157,0.58593 q -1.5039,0.35157 -2.05078,1.3086 -0.52734,0.9375 -0.52734,3.18359 v 20.13672 h -4.19922 l -0.25391,-0.52734 h 3.92579 v -19.41407 q 0,-2.7539 0.70312,-3.82812 0.72266,-1.09375 2.75391,-1.44531 z"
         style="font-style:normal;font-variant:normal;font-weight:normal;font-stretch:normal;font-family:Algerian;-inkscape-font-specification:Algerian;fill:#ffd5d5"
         id="path3722-3" />
    </g>
  </g>
</svg>
